<svg xmlns="http://www.w3.org/2000/svg" xmlns:xlink="http://www.w3.org/1999/xlink" width="134" zoomAndPan="magnify" viewBox="0 0 100.5 100.499998" height="134" preserveAspectRatio="xMidYMid meet" version="1.0"><defs><g/><clipPath id="50b72708be"><path d="M 0 0 L 99.796875 0 L 99.796875 99.796875 L 0 99.796875 Z M 0 0 " clip-rule="nonzero"/></clipPath><clipPath id="580af37e1e"><path d="M 49.898438 0 C 22.339844 0 0 22.339844 0 49.898438 C 0 77.457031 22.339844 99.796875 49.898438 99.796875 C 77.457031 99.796875 99.796875 77.457031 99.796875 49.898438 C 99.796875 22.339844 77.457031 0 49.898438 0 Z M 49.898438 0 " clip-rule="nonzero"/></clipPath></defs><g clip-path="url(#50b72708be)"><g clip-path="url(#580af37e1e)"><path fill="#545454" d="M 0 0 L 99.796875 0 L 99.796875 99.796875 L 0 99.796875 Z M 0 0 " fill-opacity="1" fill-rule="nonzero"/></g></g><g fill="#545454" fill-opacity="1"><g transform="translate(49.898384, 29.607174)"><g><path d="M 2.734375 0.15625 C 2.160156 0.15625 1.6875 -0.0078125 1.3125 -0.34375 C 0.945312 -0.6875 0.765625 -1.109375 0.765625 -1.609375 C 0.765625 -2.128906 0.945312 -2.5625 1.3125 -2.90625 C 1.6875 -3.25 2.160156 -3.421875 2.734375 -3.421875 C 3.296875 -3.421875 3.757812 -3.25 4.125 -2.90625 C 4.488281 -2.5625 4.671875 -2.128906 4.671875 -1.609375 C 4.671875 -1.109375 4.488281 -0.6875 4.125 -0.34375 C 3.757812 -0.0078125 3.296875 0.15625 2.734375 0.15625 Z M 2.734375 0.15625 "/></g></g></g></svg>